<?xml version="1.0" encoding="utf-8"?>
<!-- Svg Vector Icons : http://www.onlinewebfonts.com/icon -->
<!DOCTYPE svg PUBLIC "-//W3C//DTD SVG 1.1//EN" "http://www.w3.org/Graphics/SVG/1.1/DTD/svg11.dtd">
<svg version="1.1" xmlns="http://www.w3.org/2000/svg" xmlns:xlink="http://www.w3.org/1999/xlink" x="0px" y="0px" viewBox="0 0 256 256" enable-background="new 0 0 256 256" xml:space="preserve">
<metadata> Svg Vector Icons : http://www.onlinewebfonts.com/icon </metadata>
<g><g><path fill="#000000" d="M115.5,85.2c0,22.4-16,37.6-39.4,37.4c-18.2-0.1-33.9-17.2-34-37C42,64.6,58.6,46.5,78.6,47C95.8,47.6,117.2,61.9,115.5,85.2L115.5,85.2z M79.1,60.2c-15,0-26.3,10.7-26.6,25.3c-0.2,12.1,13.1,24.7,26.2,24.7c14.3,0,25.2-10.6,25.3-24.9C104.1,71.1,93.3,60.2,79.1,60.2L79.1,60.2z"/><path fill="#000000" d="M246,125.9c0,3.4-2.6,5.4-4.6,7.5c-23,23-46.1,46-69,69.2c-5.2,5.3-9.3,5.1-14.3-0.1c-7.8-8.3-16-16.2-24-24.2c-3.6-3.6-5.8-7.1-1.2-11.5c4.5-4.4,8.1-2.5,11.6,1.2c1,1.1,2.1,2.1,3.2,3.2c17.7,17.5,17.7,17.5,35.7-0.5c16.1-16.1,32.1-32.1,48.2-48.2c2.4-2.4,5-5.1,8.8-3.3C243.3,120.4,245.3,122.6,246,125.9L246,125.9z"/><path fill="#000000" d="M10,196.3c4.5-24.6,15.2-46.3,39.5-59c22.6-11.8,44.5-10.7,65.3,4.1c3.8,2.7,11.5,5.1,6.8,11.7c-3.9,5.6-8.7,0.6-12.7-2c-32.2-21.3-73.9-4.4-84.5,34.2c-1.3,4.7-2,9.7-3.4,14.4c-1.1,3.7-0.6,9.9-6.2,9.2C8.6,208.2,11,201.9,10,196.3L10,196.3z"/></g></g>
</svg>